<svg width="100" height="85" viewBox="0 0 100 85" fill="none" xmlns="http://www.w3.org/2000/svg">
<path fill-rule="evenodd" clip-rule="evenodd" d="M9.22161 8.90543C14.5292 3.78051 21.5588 0.654799 29.0431 0.0918832C36.5273 -0.471033 43.9736 1.56589 50.0394 5.83538C56.4482 1.35911 64.3672 -0.62533 72.2222 0.276513C80.0772 1.17836 87.2932 4.90044 92.4357 10.7029C97.5783 16.5055 100.271 23.9635 99.9785 31.5947C99.686 39.2259 96.4298 46.4715 90.8571 51.8912L61.17 80.5501C58.2177 83.3994 54.214 85 50.0394 85C45.8647 85 41.861 83.3994 38.9087 80.5501L9.22161 51.8963C3.31709 46.1959 0 38.4647 0 30.4034C0 22.3421 3.31709 14.6058 9.22161 8.90543Z" fill="#FB8F2A"/>
</svg>
