<svg width="10" height="8" viewBox="0 0 10 8" fill="none" xmlns="http://www.w3.org/2000/svg">
<path d="M0.191199 7.82391C0.0687742 7.71112 -4.38211e-07 7.55817 -4.24269e-07 7.39869C-4.10327e-07 7.23921 0.0687743 7.08626 0.191199 6.97348L3.42372 3.99637L0.1912 1.01926C0.0722443 0.905829 0.0064222 0.753904 0.00791042 0.59621C0.00939817 0.438515 0.078077 0.287667 0.199155 0.176156C0.320233 0.0646449 0.484021 0.0013934 0.655245 2.29852e-05C0.826468 -0.00134695 0.991426 0.0592743 1.11459 0.168831L4.8088 3.57115C4.93123 3.68394 5 3.83689 5 3.99637C5 4.15585 4.93123 4.3088 4.8088 4.42158L1.11459 7.82391C0.992126 7.93666 0.826055 8 0.652894 8C0.479733 8 0.313661 7.93666 0.191199 7.82391Z" fill="#111111"/>
<path d="M5.1912 7.82391C5.06877 7.71112 5 7.55817 5 7.39869C5 7.23921 5.06877 7.08626 5.1912 6.97348L8.42372 3.99637L5.1912 1.01926C5.07224 0.905829 5.00642 0.753904 5.00791 0.59621C5.0094 0.438515 5.07808 0.287667 5.19915 0.176156C5.32023 0.0646449 5.48402 0.0013934 5.65525 2.29852e-05C5.82647 -0.00134695 5.99143 0.0592743 6.11459 0.168831L9.8088 3.57115C9.93123 3.68394 10 3.83689 10 3.99637C10 4.15585 9.93123 4.3088 9.8088 4.42158L6.11459 7.82391C5.99213 7.93666 5.82606 8 5.65289 8C5.47973 8 5.31366 7.93666 5.1912 7.82391Z" fill="#111111"/>
</svg>
